<mxfile host="app.diagrams.net" modified="2021-07-23T03:51:31.408Z" agent="5.0 (Windows NT 10.0; Win64; x64) AppleWebKit/537.36 (KHTML, like Gecko) Chrome/90.0.4430.72 Safari/537.36" etag="GiOA0x1glOY-G8S6EmiT" version="14.8.4" type="github">
  <diagram id="IGmrRcJs-5kOvxcU8E9H" name="第 1 页">
    <mxGraphModel dx="2591" dy="762" grid="1" gridSize="10" guides="1" tooltips="1" connect="1" arrows="1" fold="1" page="1" pageScale="1" pageWidth="1169" pageHeight="827" math="0" shadow="0">
      <root>
        <mxCell id="0" />
        <mxCell id="1" parent="0" />
        <mxCell id="jy8tWq2FMprEvK_Brc5D-1" value="Makefile_obj.in" style="swimlane;strokeWidth=1;" vertex="1" parent="1">
          <mxGeometry x="-1090" y="45" width="430" height="185" as="geometry" />
        </mxCell>
        <mxCell id="jy8tWq2FMprEvK_Brc5D-8" value="&lt;font style=&quot;font-size: 11px&quot;&gt;V3PreLex_pregen.yy.cpp: V3PreLex.l $(HEADERS)&lt;br&gt;&amp;nbsp; &amp;nbsp;&amp;nbsp;&lt;span style=&quot;font-size: 4px ; text-align: center&quot;&gt;${LEX} ${LFLAGS} -o$@ $&amp;lt;&lt;br&gt;V3PreLex.yy.cpp: V3PreLex_pregen.yy.cpp $(FLEXFIX)&lt;br&gt;&amp;nbsp; &amp;nbsp; $(PYTHON3) $(FLEXFIX) V3PreLex &amp;lt;$&amp;lt; &amp;gt;$@&lt;br&gt;flexfix：编辑flex输出以绕过各种损坏的flex问题&lt;br&gt;&lt;/span&gt;&lt;/font&gt;" style="text;whiteSpace=wrap;html=1;fontSize=4;verticalAlign=middle;align=left;" vertex="1" parent="jy8tWq2FMprEvK_Brc5D-1">
          <mxGeometry x="10" y="35" width="410" height="70" as="geometry" />
        </mxCell>
        <mxCell id="jy8tWq2FMprEvK_Brc5D-9" value="V3PreLex.l" style="strokeWidth=1;html=1;shape=mxgraph.flowchart.document2;whiteSpace=wrap;size=0.25;" vertex="1" parent="jy8tWq2FMprEvK_Brc5D-1">
          <mxGeometry x="20" y="121.5" width="85" height="40" as="geometry" />
        </mxCell>
        <mxCell id="jy8tWq2FMprEvK_Brc5D-10" value="flex &amp;amp;&lt;br&gt;flexfix(.py)" style="shape=step;perimeter=stepPerimeter;whiteSpace=wrap;html=1;fixedSize=1;strokeWidth=1;" vertex="1" parent="jy8tWq2FMprEvK_Brc5D-1">
          <mxGeometry x="133" y="116.5" width="100" height="50" as="geometry" />
        </mxCell>
        <mxCell id="jy8tWq2FMprEvK_Brc5D-11" value="" style="edgeStyle=orthogonalEdgeStyle;rounded=0;jumpSize=6;orthogonalLoop=1;jettySize=auto;html=1;strokeWidth=1;" edge="1" parent="jy8tWq2FMprEvK_Brc5D-1" source="jy8tWq2FMprEvK_Brc5D-9" target="jy8tWq2FMprEvK_Brc5D-10">
          <mxGeometry relative="1" as="geometry" />
        </mxCell>
        <mxCell id="jy8tWq2FMprEvK_Brc5D-12" value="V3PreLex_pregen.yy.cpp&lt;br&gt;&amp;amp;&amp;nbsp;V3PreLex.yy.cpp" style="strokeWidth=1;html=1;shape=mxgraph.flowchart.document2;whiteSpace=wrap;size=0.25;" vertex="1" parent="jy8tWq2FMprEvK_Brc5D-1">
          <mxGeometry x="263" y="114" width="147" height="55" as="geometry" />
        </mxCell>
        <mxCell id="jy8tWq2FMprEvK_Brc5D-13" value="" style="edgeStyle=orthogonalEdgeStyle;rounded=0;jumpSize=6;orthogonalLoop=1;jettySize=auto;html=1;strokeWidth=1;" edge="1" parent="jy8tWq2FMprEvK_Brc5D-1" source="jy8tWq2FMprEvK_Brc5D-10" target="jy8tWq2FMprEvK_Brc5D-12">
          <mxGeometry relative="1" as="geometry" />
        </mxCell>
      </root>
    </mxGraphModel>
  </diagram>
</mxfile>
